<svg xmlns="http://www.w3.org/2000/svg" version="1.1" xmlns:xlink="http://www.w3.org/1999/xlink" xmlns:svgjs="http://svgjs.com/svgjs" width="32" height="32"><svg version="1.1" id="SvgjsSvg1000" xmlns="http://www.w3.org/2000/svg" xmlns:xlink="http://www.w3.org/1999/xlink" x="0px" y="0px" viewBox="0 0 32 32" style="enable-background:new 0 0 32 32;" xml:space="preserve">
<style type="text/css">
	.st0{fill:#F16485;}
	.st1{fill:#FFFFFF;}
	.st2{fill-rule:evenodd;clip-rule:evenodd;fill:#F16485;}
	.st3{fill-rule:evenodd;clip-rule:evenodd;fill:#FFFFFF;}
</style>
<g transform="translate(0,-280.06667)">
	<path class="st2" d="M16.03,280.07c-0.8,0-1.61,0.21-2.32,0.62c-1.44,0.83-2.35,2.36-2.35,4.02v2.39c0,0.19-0.1,0.35-0.26,0.45
		s-0.35,0.09-0.51,0l-2.07-1.22c-1.44-0.83-3.21-0.83-4.65,0c-1.44,0.83-2.32,2.36-2.32,4.02c0,1.66,0.89,3.19,2.32,4.02L6,295.62
		c0.16,0.09,0.26,0.26,0.26,0.45c0,0.19-0.1,0.35-0.26,0.45l-2.14,1.24c-1.44,0.83-2.32,2.37-2.32,4.03s0.89,3.19,2.32,4.02
		c1.44,0.83,3.21,0.83,4.64,0l2.1-1.22c0.16-0.09,0.35-0.09,0.51,0c0.16,0.09,0.23,0.26,0.23,0.45v2.39c0,1.66,0.91,3.19,2.35,4.02
		c0.71,0.41,1.5,0.62,2.3,0.62c0.81,0,1.63-0.2,2.35-0.62c1.44-0.83,2.32-2.36,2.32-4.02l-0.03-2.39c0-0.19,0.07-0.35,0.23-0.45
		c0.16-0.09,0.35-0.09,0.51,0l2.1,1.22c1.44,0.83,3.21,0.83,4.65,0c1.44-0.83,2.32-2.36,2.32-4.02s-0.89-3.19-2.32-4.02L26,296.51
		c-0.16-0.09-0.26-0.26-0.26-0.45c0-0.19,0.1-0.35,0.26-0.45l2.14-1.24c1.44-0.83,2.32-2.37,2.32-4.03c0-1.66-0.89-3.19-2.32-4.02
		c-1.44-0.83-3.21-0.83-4.65,0l-2.07,1.22c-0.16,0.09-0.35,0.09-0.51,0c-0.16-0.09-0.26-0.26-0.26-0.45v-2.39
		c0-1.66-0.86-3.19-2.3-4.02C17.63,280.27,16.83,280.07,16.03,280.07z"></path>
</g>
</svg><style>@media (prefers-color-scheme: light) { :root { filter: none; } }
@media (prefers-color-scheme: dark) { :root { filter: none; } }
</style></svg>